<?xml version="1.0" encoding="UTF-8"?>
<!DOCTYPE svg PUBLIC "-//W3C//DTD SVG 1.1//EN" "http://www.w3.org/Graphics/SVG/1.1/DTD/svg11.dtd">
<svg version="1.1" xmlns="http://www.w3.org/2000/svg" xmlns:xlink="http://www.w3.org/1999/xlink" width="393" height="47"  xml:space="preserve" id="fdplockuplogo">
    <defs>
        <linearGradient id="fdplockuplogo-gradient-rectangle2" x1="45.65" y1="11.5" x2="0.01" y2="11.5" gradientUnits="userSpaceOnUse" >
            <stop offset="0" stop-color="rgb(96, 178, 226)" stop-opacity="1" />
            <stop offset="0.51" stop-color="rgb(34, 94, 172)" stop-opacity="1" />
        </linearGradient>
        <linearGradient id="fdplockuplogo-gradient2-clip" x1="98.8" y1="12" x2="45.64" y2="12" gradientUnits="userSpaceOnUse" >
            <stop offset="0.5" stop-color="rgb(4, 150, 71)" stop-opacity="1" />
            <stop offset="0.64" stop-color="rgb(51, 159, 112)" stop-opacity="1" />
            <stop offset="1" stop-color="rgb(98, 167, 153)" stop-opacity="1" />
        </linearGradient>
        <linearGradient id="fdplockuplogo-gradient4-bezier4" x1="145.05" y1="34.96" x2="98.45" y2="34.96" gradientUnits="userSpaceOnUse" >
            <stop offset="0.5" stop-color="rgb(214, 203, 226)" stop-opacity="1" />
            <stop offset="0.86" stop-color="rgb(234, 229, 240)" stop-opacity="1" />
            <stop offset="1" stop-color="rgb(255, 255, 255)" stop-opacity="1" />
        </linearGradient>
    </defs>
    <path id="fdplockuplogo-bezier7" stroke="none" fill="rgb(33, 94, 171)" d="M 157.2,1.11 L 168.06,1.11 184.85,34.06 184.97,34.06 184.97,1.11 193.43,1.11 193.43,45.17 182.64,45.17 165.78,12.22 165.66,12.22 165.66,45.17 157.2,45.17 157.2,1.11 Z M 157.2,1.11" />
    <path id="fdplockuplogo-bezier8" stroke="none" fill="rgb(33, 94, 171)" d="M 200.37,1.11 L 209.21,1.11 209.21,18.91 226.88,18.91 226.88,1.11 235.72,1.11 235.72,45.17 226.88,45.17 226.88,25.85 209.21,25.85 209.21,45.17 200.37,45.17 200.37,1.11 Z M 200.37,1.11" />
    <path id="fdplockuplogo-bezier9" stroke="none" fill="rgb(33, 94, 171)" d="M 267.78,9.19 C 265,7.99 261.91,7.29 258.81,7.29 255.78,7.29 251.87,8.62 251.87,13.42 251.87,21.05 271.19,17.84 271.19,32.61 271.19,42.27 263.55,45.93 254.65,45.93 249.85,45.93 247.7,45.3 243.35,44.22 L 244.17,36.27 C 247.2,37.91 250.67,38.98 254.14,38.98 257.49,38.98 261.97,37.28 261.97,33.3 261.97,24.91 242.65,28.38 242.65,13.79 242.65,3.95 250.29,0.35 258.06,0.35 261.84,0.35 265.38,0.85 268.6,1.93 L 267.78,9.19 Z M 267.78,9.19" />
    <path id="fdplockuplogo-bezier10" stroke="none" fill="rgb(33, 94, 171)" d="M 287.4,1.11 L 311.89,1.11 311.89,8.05 296.23,8.05 296.23,18.91 311.13,18.91 311.13,25.85 296.23,25.85 296.23,45.17 287.4,45.17 287.4,1.11 Z M 287.4,1.11" />
    <path id="fdplockuplogo-bezier11" stroke="none" fill="rgb(33, 94, 171)" d="M 327.66,38.23 L 332.59,38.23 C 339.97,38.23 347.11,32.73 347.11,23.14 347.11,13.54 339.97,8.05 332.59,8.05 L 327.66,8.05 327.66,38.23 Z M 318.82,1.1 L 330.88,1.1 C 344.39,1.1 356.32,5.65 356.32,23.14 356.32,40.63 344.39,45.17 330.88,45.17 L 318.82,45.17 318.82,1.1 Z M 318.82,1.1" />
    <path id="fdplockuplogo-bezier12" stroke="none" fill="rgb(33, 94, 171)" d="M 372.09,21.5 L 375.19,21.5 C 379.61,21.5 383.58,20.04 383.58,14.93 383.58,9.82 379.73,8.05 375.19,8.05 L 372.09,8.05 372.09,21.5 Z M 363.26,1.11 L 374.43,1.11 C 384.03,1.11 392.8,3.88 392.8,14.43 392.8,24.72 385.29,28.44 375.82,28.44 L 372.09,28.44 372.09,45.17 363.26,45.17 363.26,1.11 Z M 363.26,1.11" />
    <g id="fdplockuplogo-group3">
        <g id="fdplockuplogo-squareGroup">
            <rect id="fdplockuplogo-rectangle" stroke="none" fill="rgb(34, 94, 172)" x="0.02" y="0.49" width="45.6" height="46.6" />
            <rect id="fdplockuplogo-rectangle2" stroke="none" fill="url(#fdplockuplogo-gradient-rectangle2)" x="0" y="0" width="45.65" height="23" />
        </g>
        <g id="fdplockuplogo-hexagonGroup">
            <path id="fdplockuplogo-polygon" stroke="none" fill="rgb(73, 160, 152)" d="M 58.9,-0 L 85.5,-0 98.8,23.53 85.5,47.06 58.9,47.06 45.6,23.53 58.9,-0 Z M 58.9,-0" />
            <g id="fdplockuplogo-hexagon">
                <path id="fdplockuplogo-clip" stroke="none" fill="url(#fdplockuplogo-gradient2-clip)" d="M 58.93,-0 L 45.64,24 98.8,24 85.51,-0 58.93,-0 Z M 58.93,-0" />
            </g>
        </g>
        <g id="fdplockuplogo-circleGroup">
            <g id="fdplockuplogo-group">
                <circle id="fdplockuplogo-oval" stroke="none" fill="rgb(214, 203, 226)" cx="121.75" cy="23.3" r="23.3" />
                <path id="fdplockuplogo-bezier4" stroke="none" fill="url(#fdplockuplogo-gradient4-bezier4)" d="M 121.75,23.3 L 98.45,23.3 C 98.45,36.17 108.88,46.61 121.75,46.61 L 121.75,46.61 C 134.62,46.61 145.05,36.17 145.05,23.3 L 145.05,23.3 121.75,23.3 Z M 121.75,23.3" />
            </g>
        </g>
        <path id="fdplockuplogo-bezier5" stroke="rgb(217, 216, 216)" stroke-width="1" stroke-miterlimit="2.49" fill="none" d="M 22.3,23.48 L 122.54,23.48" />
    </g>
</svg>
