<?xml version="1.0" encoding="UTF-8"?>
<!DOCTYPE svg PUBLIC "-//W3C//DTD SVG 1.1//EN" "http://www.w3.org/Graphics/SVG/1.1/DTD/svg11.dtd">
<svg version="1.1" xmlns="http://www.w3.org/2000/svg" xmlns:xlink="http://www.w3.org/1999/xlink" width="290" height="155" xml:space="preserve" id="fdptwolineinverse">
	<rect id="fdptwolineinverse-rectangle" stroke="none" fill="rgb(32, 95, 172)" x="2.7" y="-0.03" width="144.1" height="58.05" />
	<path id="fdptwolineinverse-bezier" stroke="none" fill="rgb(254, 254, 254)" d="M 60.61,5.6 L 50.66,52.31 35.06,52.31 25.24,19.99 25.11,19.99 18.58,52.31 6.74,52.31 16.77,5.6 32.43,5.6 42.05,37.99 42.18,37.99 48.77,5.6 60.61,5.6 Z M 60.61,5.6" />
	<path id="fdptwolineinverse-bezier2" stroke="none" fill="rgb(254, 254, 254)" d="M 105.26,5.6 L 95.51,52.31 82.94,52.31 87.11,32.3 72.24,32.3 68.07,52.31 55.49,52.31 65.25,5.6 77.82,5.6 74.13,23.47 88.99,23.47 92.69,5.6 105.26,5.6 Z M 105.26,5.6" />
	<path id="fdptwolineinverse-bezier3" stroke="none" fill="rgb(254, 254, 254)" d="M 141.38,6.87 L 138.35,16.17 C 135.92,15.04 132.63,14.04 127.99,14.04 123.02,14.04 118.98,14.77 118.98,18.52 118.98,25.14 137.2,22.67 137.2,36.85 137.2,49.77 125.17,53.12 114.27,53.12 109.43,53.12 103.85,51.97 99.75,50.7 L 102.71,41.2 C 105.19,42.8 110.17,43.88 114.27,43.88 118.18,43.88 124.29,43.14 124.29,38.32 124.29,30.83 106.06,33.64 106.06,20.46 106.06,8.42 116.69,4.8 126.98,4.8 132.77,4.8 138.21,5.41 141.38,6.87 Z M 141.38,6.87" />
	<text fill="rgb(254, 254, 254)" font-family="FrutigerLTPro-Bold, 'Frutiger LT Pro', sans-serif" font-weight="bold" font-size="40" x="0" y="64.89">
		<tspan x="0" y="102.89">
			Federated Data
		</tspan>
		<tspan x="0" y="150.89">
			Platform
		</tspan>
	</text>
</svg>
