<?xml version="1.0" encoding="UTF-8"?>
<!DOCTYPE svg PUBLIC "-//W3C//DTD SVG 1.1//EN" "http://www.w3.org/Graphics/SVG/1.1/DTD/svg11.dtd">
<svg version="1.1" xmlns="http://www.w3.org/2000/svg" xmlns:xlink="http://www.w3.org/1999/xlink" width="357" height="114"  xml:space="preserve" id="fdpgraphic">
    <defs>
        <linearGradient id="fdpgraphic-gradient-rectangle2" x1="113.66" y1="27.99" x2="0.02" y2="27.99" gradientUnits="userSpaceOnUse" >
            <stop offset="0" stop-color="rgb(96, 178, 226)" stop-opacity="1" />
            <stop offset="0.51" stop-color="rgb(34, 94, 172)" stop-opacity="1" />
        </linearGradient>
        <linearGradient id="fdpgraphic-gradient2-clip" x1="243.8" y1="28.5" x2="113.64" y2="28.5" gradientUnits="userSpaceOnUse" >
            <stop offset="0.5" stop-color="rgb(4, 150, 71)" stop-opacity="1" />
            <stop offset="0.64" stop-color="rgb(51, 159, 112)" stop-opacity="1" />
            <stop offset="1" stop-color="rgb(98, 167, 153)" stop-opacity="1" />
        </linearGradient>
        <linearGradient id="fdpgraphic-gradient4-bezier4" x1="357.05" y1="85.21" x2="243.44" y2="85.21" gradientUnits="userSpaceOnUse" >
            <stop offset="0.5" stop-color="rgb(214, 203, 226)" stop-opacity="1" />
            <stop offset="0.86" stop-color="rgb(234, 229, 240)" stop-opacity="1" />
            <stop offset="1" stop-color="rgb(255, 255, 255)" stop-opacity="1" />
        </linearGradient>
    </defs>
    <g id="fdpgraphic-group3">
        <g id="fdpgraphic-squareGroup">
            <rect id="fdpgraphic-rectangle" stroke="none" fill="rgb(34, 94, 172)" x="0.02" y="0.49" width="113.6" height="113.6" />
            <rect id="fdpgraphic-rectangle2" stroke="none" fill="url(#fdpgraphic-gradient-rectangle2)" x="0" y="0" width="113.65" height="56" />
        </g>
        <g id="fdpgraphic-hexagonGroup">
            <path id="fdpgraphic-polygon" stroke="none" fill="rgb(73, 160, 152)" d="M 146.15,-0 L 211.25,0 243.8,57.03 211.25,114.06 146.15,114.06 113.6,57.03 146.15,-0 Z M 146.15,-0" />
            <g id="fdpgraphic-hexagon">
                <path id="fdpgraphic-clip" stroke="none" fill="url(#fdpgraphic-gradient2-clip)" d="M 146.18,-0 L 113.64,57 243.8,57 211.26,-0 146.18,-0 Z M 146.18,-0" />
            </g>
        </g>
        <g id="fdpgraphic-circleGroup">
            <circle id="fdpgraphic-oval" stroke="none" fill="rgb(214, 203, 226)" cx="300.25" cy="56.8" r="56.8" />
            <path id="fdpgraphic-bezier4" stroke="none" fill="url(#fdpgraphic-gradient4-bezier4)" d="M 300.25,56.8 L 243.45,56.8 C 243.45,88.18 268.88,113.61 300.25,113.61 L 300.25,113.61 C 331.62,113.61 357.05,88.18 357.05,56.8 L 357.05,56.8 300.25,56.8 Z M 300.25,56.8" />
        </g>
        <path id="fdpgraphic-bezier5" stroke="rgb(217, 216, 216)" stroke-width="2.49" stroke-miterlimit="2.49" fill="none" d="M 54.9,56.9 L 301.64,56.9" />
    </g>
</svg>
